<svg xmlns="http://www.w3.org/2000/svg" viewBox="0 0 44 44"><title>gear-2@1x</title><g id="Layer_2" data-name="Layer 2"><g id="General"><g id="Settings_2_2x.png" data-name="Settings 2@2x.png"><path d="M22,10A12,12,0,1,0,34,22,12,12,0,0,0,22,10Zm0,2a10,10,0,0,1,8.21,4.3l-5.32,3a4,4,0,0,0-5.79,0l-5.32-3A10,10,0,0,1,22,12ZM21,32A10,10,0,0,1,12.82,18l5.32,3A3.92,3.92,0,0,0,21,25.86ZM20,22a2,2,0,1,1,2,2A2,2,0,0,1,20,22Zm12,0a10,10,0,0,1-9,10V25.86A3.92,3.92,0,0,0,25.86,21l5.32-3A10,10,0,0,1,32,22Zm10.53-4.4-2.12-.53a18.9,18.9,0,0,0-1.91-4.6l1.13-1.88a1.73,1.73,0,0,0,0-2.07L35.48,4.37a1.23,1.23,0,0,0-.9-.36,2.37,2.37,0,0,0-1.17.36L31.52,5.5a19,19,0,0,0-4.59-1.9L26.4,1.47C26.17.75,25.74,0,24.93,0H19.07c-.81,0-1.28.75-1.47,1.47L17.07,3.6a19,19,0,0,0-4.59,1.9L10.59,4.37A2.37,2.37,0,0,0,9.42,4a1.23,1.23,0,0,0-.9.36L4.37,8.52a1.73,1.73,0,0,0,0,2.07L5.5,12.47a18.9,18.9,0,0,0-1.91,4.6l-2.12.53C.75,17.78,0,18.26,0,19.07v5.87c0,.81.75,1.24,1.47,1.47l2.12.53a18.89,18.89,0,0,0,1.91,4.6L4.37,33.41a1.69,1.69,0,0,0,0,2.07l4.15,4.15a1.19,1.19,0,0,0,.87.35,2.73,2.73,0,0,0,1.2-.35l1.89-1.13a19,19,0,0,0,4.59,1.9l.53,2.13c.18.72.66,1.47,1.47,1.47h5.87c.81,0,1.24-.75,1.47-1.47l.53-2.13a19,19,0,0,0,4.59-1.9l1.89,1.13a2.74,2.74,0,0,0,1.2.35,1.19,1.19,0,0,0,.87-.35l4.15-4.15a1.69,1.69,0,0,0,0-2.07L38.5,31.53a18.89,18.89,0,0,0,1.91-4.6l2.12-.53c.72-.23,1.47-.66,1.47-1.47V19.07C44,18.26,43.25,17.78,42.53,17.6ZM42,24.47h0l-2,.51a2,2,0,0,0-1.45,1.42,17,17,0,0,1-1.71,4.11,2,2,0,0,0,0,2l1.1,1.83L34.4,37.89h0l-1.83-1.09a2,2,0,0,0-2,0,17,17,0,0,1-4.1,1.7A2,2,0,0,0,25,39.91L24.48,42v0H19.53L19,39.91a2,2,0,0,0-1.42-1.45,17,17,0,0,1-4.1-1.7,2,2,0,0,0-2,0L9.63,37.88h0L6.11,34.39l1.1-1.84a2,2,0,0,0,0-2,16.93,16.93,0,0,1-1.71-4.11A2,2,0,0,0,4.07,25l-2-.51H2V19.53L4.07,19a2,2,0,0,0,1.45-1.42,16.93,16.93,0,0,1,1.71-4.11,2,2,0,0,0,0-2L6.12,9.63v0L9.61,6.11l1.85,1.11a2,2,0,0,0,2,0,16.93,16.93,0,0,1,4.1-1.7A2,2,0,0,0,19,4.09L19.53,2h4.94V2L25,4.09a2,2,0,0,0,1.42,1.45,16.94,16.94,0,0,1,4.1,1.7,2,2,0,0,0,2,0l1.85-1.11L37.89,9.6v0l-1.09,1.81a2,2,0,0,0,0,2,17,17,0,0,1,1.71,4.11A2,2,0,0,0,39.93,19l2.07.52Z"/></g></g></g></svg>