<svg xmlns="http://www.w3.org/2000/svg" viewBox="0 0 44 44"><title>globe-connections@1x</title><g id="Layer_2" data-name="Layer 2"><g id="Web"><g id="Global_Connection_2x.png" data-name="Global Connection@2x.png"><path d="M22,0A22,22,0,1,0,44,22,22,22,0,0,0,22,0ZM33,5.29c0,.24,0,.47,0,.71a30.07,30.07,0,0,1-.62,6.07,3,3,0,0,0-1.52,5,30,30,0,0,1-2.36,4.7A29.87,29.87,0,0,1,21.33,6.42a29.76,29.76,0,0,1,7.41-3.23A20,20,0,0,1,33,5.29ZM28.76,25a31.9,31.9,0,0,0,5.84,4.44A38,38,0,0,1,28,30c-1,0-2-.05-3-.13a3.18,3.18,0,0,0-.07-.57A31.88,31.88,0,0,0,28.76,25ZM22,2a20,20,0,0,1,3.27.29,31,31,0,0,0-4.17,1.95C21,3.52,21,2.79,21,2.05,21.34,2,21.66,2,22,2Zm5.35,21.51a30.11,30.11,0,0,1-3.57,4.09A3,3,0,0,0,19.2,29,37.74,37.74,0,0,1,8,24.32a29.85,29.85,0,0,1,4.33-9.39A3,3,0,0,0,16,12a3,3,0,0,0-.24-1.17A30.26,30.26,0,0,1,19.5,7.64,31.88,31.88,0,0,0,27.35,23.51ZM5,32.54A19.89,19.89,0,0,1,2,22.4a40.07,40.07,0,0,0,3.73,2.83A31.93,31.93,0,0,0,5,32C5,32.18,5,32.36,5,32.54Zm1.24-9.38a38.19,38.19,0,0,1-4.13-3.34A20,20,0,0,1,19,2.25q0,1.6.18,3.17A32.15,32.15,0,0,0,14.4,9.36,3,3,0,0,0,13,9a3,3,0,0,0-2.34,4.85A31.93,31.93,0,0,0,6.26,23.16Zm.95,12.27a28.73,28.73,0,0,1,.34-9.06A39.74,39.74,0,0,0,19.19,31c0,.05,0,.11.05.17A29.8,29.8,0,0,1,7.42,35.66ZM22,42A19.91,19.91,0,0,1,9.19,37.35a32,32,0,0,0,11.45-4.69,2.94,2.94,0,0,0,3.73-.82c1.2.11,2.41.17,3.64.17a40,40,0,0,0,9.32-1.13c.69.33,1.38.66,2.09.94A20,20,0,0,1,22,42ZM37.54,28.78a30,30,0,0,1-7.63-5.48A31.74,31.74,0,0,0,32.66,18,3.22,3.22,0,0,0,33,18a3,3,0,0,0,1.34-5.67A32.16,32.16,0,0,0,35,6.79a19.84,19.84,0,0,1,6.2,20.84A37.94,37.94,0,0,1,37.54,28.78Z"/></g></g></g></svg>